<?xml version="1.0" encoding="UTF-8" standalone="no"?>
<!DOCTYPE svg PUBLIC "-//W3C//DTD SVG 1.1//EN" "http://www.w3.org/Graphics/SVG/1.1/DTD/svg11.dtd">
<svg width="100%" height="100%" viewBox="0 0 315 326" version="1.1" xmlns="http://www.w3.org/2000/svg" xmlns:xlink="http://www.w3.org/1999/xlink" xml:space="preserve" xmlns:serif="http://www.serif.com/" style="fill-rule:evenodd;clip-rule:evenodd;stroke-linejoin:round;stroke-miterlimit:2;">
    <g id="Artboard1" transform="matrix(1,0,0,1,-12,-32)">
        <rect x="12" y="32" width="315" height="326" style="fill:none;"/>
        <clipPath id="_clip1">
            <rect x="12" y="32" width="315" height="326"/>
        </clipPath>
        <g clip-path="url(#_clip1)">
            <g id="Page-1" serif:id="Page 1" transform="matrix(2.160667,0,0,0.742667,0,0)">
                <g transform="matrix(1,0,0,1,130.978073,394.52406)">
                    <clipPath id="_clip2">
                        <rect x="-130.978" y="-394.524" width="500" height="500"/>
                    </clipPath>
                    <g clip-path="url(#_clip2)">
                        <rect x="0" y="0" width="500" height="500" style="fill:none;"/>
                    </g>
                </g>
                <g id="OBJECTS" transform="matrix(1.928417,0,0,5.610413,-219.376736,-789.048474)">
                    <g transform="matrix(0.571075,0,0,0.571075,172.915966,167.453091)">
                        <path d="M0,64.998C0,73.644 -7.035,80.68 -15.682,80.68L-62.493,80.68C-71.14,80.68 -78.175,73.644 -78.175,64.998L-78.175,18.187C-78.175,9.54 -71.14,2.506 -62.493,2.506L-15.682,2.506C-7.035,2.506 0,9.54 0,18.187L0,64.998ZM-15.682,-6.322L-32.948,-6.322L-22.728,-16.543C-21.004,-18.267 -21.004,-21.062 -22.728,-22.785C-24.452,-24.51 -27.246,-24.509 -28.97,-22.785L-39.301,-12.455L-49.631,-22.785C-51.355,-24.51 -54.15,-24.509 -55.874,-22.785C-57.598,-21.062 -57.598,-18.267 -55.873,-16.543L-45.653,-6.322L-62.493,-6.322C-76.008,-6.322 -87.003,4.672 -87.003,18.187L-87.003,64.998C-87.003,78.513 -76.008,89.508 -62.493,89.508L-15.682,89.508C-2.167,89.508 8.827,78.513 8.827,64.998L8.827,18.187C8.827,4.672 -2.167,-6.322 -15.682,-6.322" style="fill:rgb(255,5,5);fill-rule:nonzero;"/>
                    </g>
                    <g transform="matrix(0.571075,0,0,0.571075,165.459093,193.620847)">
                        <path d="M0,-9.573L-21.616,-4.258L-21.616,-10.947C-21.616,-10.969 -21.619,-10.992 -21.619,-11.014C-21.621,-11.1 -21.626,-11.187 -21.633,-11.275C-21.638,-11.343 -21.643,-11.409 -21.65,-11.476C-21.659,-11.546 -21.671,-11.615 -21.683,-11.685C-21.696,-11.768 -21.712,-11.85 -21.73,-11.932C-21.735,-11.955 -21.738,-11.978 -21.743,-12.002C-21.752,-12.037 -21.765,-12.07 -21.774,-12.105C-21.798,-12.191 -21.823,-12.277 -21.852,-12.361C-21.871,-12.42 -21.893,-12.477 -21.915,-12.534C-21.944,-12.61 -21.975,-12.685 -22.008,-12.759C-22.036,-12.823 -22.067,-12.886 -22.099,-12.947C-22.131,-13.011 -22.163,-13.072 -22.198,-13.134C-22.237,-13.201 -22.277,-13.266 -22.319,-13.332C-22.354,-13.385 -22.388,-13.436 -22.424,-13.487C-22.471,-13.554 -22.52,-13.619 -22.57,-13.683C-22.607,-13.73 -22.646,-13.777 -22.686,-13.822C-22.737,-13.884 -22.791,-13.943 -22.847,-14.001C-22.891,-14.047 -22.937,-14.091 -22.982,-14.135C-23.036,-14.187 -23.092,-14.237 -23.148,-14.286C-23.201,-14.332 -23.256,-14.377 -23.311,-14.42C-23.364,-14.462 -23.418,-14.502 -23.473,-14.541C-23.536,-14.586 -23.601,-14.629 -23.666,-14.671C-23.718,-14.703 -23.77,-14.735 -23.822,-14.765C-23.894,-14.806 -23.966,-14.846 -24.04,-14.884C-24.092,-14.91 -24.145,-14.935 -24.197,-14.96C-24.272,-14.994 -24.349,-15.026 -24.426,-15.056C-24.483,-15.079 -24.542,-15.099 -24.6,-15.12C-24.674,-15.145 -24.747,-15.169 -24.822,-15.19C-24.891,-15.209 -24.959,-15.226 -25.027,-15.243C-25.095,-15.259 -25.162,-15.273 -25.229,-15.285C-25.311,-15.301 -25.393,-15.312 -25.475,-15.323C-25.534,-15.33 -25.593,-15.337 -25.652,-15.343C-25.743,-15.35 -25.834,-15.354 -25.926,-15.356C-25.961,-15.357 -25.995,-15.361 -26.03,-15.361C-26.053,-15.361 -26.075,-15.358 -26.098,-15.358C-26.184,-15.356 -26.27,-15.351 -26.355,-15.344C-26.424,-15.34 -26.493,-15.335 -26.561,-15.326C-26.628,-15.318 -26.696,-15.306 -26.764,-15.296C-26.85,-15.281 -26.935,-15.265 -27.018,-15.246C-27.04,-15.241 -27.062,-15.239 -27.084,-15.233L-54.168,-8.574C-56.535,-7.992 -57.982,-5.6 -57.4,-3.233C-56.905,-1.22 -55.103,0.127 -53.117,0.127C-52.769,0.127 -52.414,0.086 -52.061,-0.001L-30.444,-5.316L-30.444,1.247C-30.444,1.278 -30.44,1.306 -30.439,1.336C-30.442,1.697 -30.406,2.062 -30.316,2.427C-29.821,4.441 -28.018,5.788 -26.033,5.788C-25.685,5.788 -25.33,5.746 -24.976,5.66L2.108,-1C4.476,-1.582 5.923,-3.973 5.341,-6.341C4.758,-8.708 2.366,-10.156 0,-9.573" style="fill:rgb(255,6,6);fill-rule:nonzero;"/>
                    </g>
                </g>
            </g>
        </g>
    </g>
</svg>
